<!--?xml version="1.0" standalone="no"?-->
              <svg id="sw-js-blob-svg" viewBox="0 0 100 100" xmlns="http://www.w3.org/2000/svg" version="1.1">
                    <defs> 
                        <linearGradient id="sw-gradient" x1="0" x2="1" y1="1" y2="0">
                            <stop id="stop1" stop-color="#3F51B5" offset="0%"></stop>
                            <stop id="stop2" stop-color="#1A237E" offset="100%"></stop>
                        </linearGradient>
                         <linearGradient id="sw-gradient-outline" x1="0" x2="1" y1="1" y2="0">
                            <stop id="stop1" stop-color="rgba(238, 238, 238, 1)" offset="0%"></stop>
                            <stop id="stop2" stop-color="rgba(76, 65, 204, 1)" offset="100%"></stop>
                        </linearGradient>
                    </defs>
                <path fill="url(#sw-gradient)" d="M18.7,-29C25,-25,31.4,-21.1,35.3,-15.3C39.2,-9.5,40.7,-1.7,38,4.3C35.3,10.2,28.4,14.4,23.3,20C18.2,25.6,14.9,32.7,10.1,33.8C5.3,34.8,-1,29.9,-7.3,27.1C-13.7,24.2,-20,23.5,-26.3,20.4C-32.7,17.4,-39,11.9,-41.8,4.9C-44.6,-2.2,-43.8,-11,-39.6,-17.1C-35.3,-23.3,-27.4,-26.9,-20.2,-30.4C-13.1,-33.9,-6.5,-37.3,-0.2,-37C6.2,-36.8,12.4,-32.9,18.7,-29Z" width="100%" height="100%" transform="translate(50 50)" style="transition: all 0.3s ease 0s;" stroke-width="2" stroke="url(#sw-gradient-outline)"></path>
              </svg>