<?xml version="1.0" standalone="no"?>
<svg xmlns:xlink="http://www.w3.org/1999/xlink" id="wave" style="transform:rotate(0deg); transition: 0.3s" viewBox="0 0 1440 370" version="1.1" xmlns="http://www.w3.org/2000/svg"><defs><linearGradient id="sw-gradient-0" x1="0" x2="0" y1="1" y2="0"><stop stop-color="rgba(20.517, 0, 255, 1)" offset="0%"/><stop stop-color="rgba(0, 0, 0, 1)" offset="100%"/></linearGradient></defs><path style="transform:translate(0, 0px); opacity:1" fill="url(#sw-gradient-0)" d="M0,222L30,228.2C60,234,120,247,180,215.8C240,185,300,111,360,67.8C420,25,480,12,540,43.2C600,74,660,148,720,160.3C780,173,840,123,900,92.5C960,62,1020,49,1080,86.3C1140,123,1200,210,1260,228.2C1320,247,1380,197,1440,178.8C1500,160,1560,173,1620,160.3C1680,148,1740,111,1800,92.5C1860,74,1920,74,1980,86.3C2040,99,2100,123,2160,148C2220,173,2280,197,2340,228.2C2400,259,2460,296,2520,277.5C2580,259,2640,185,2700,154.2C2760,123,2820,136,2880,148C2940,160,3000,173,3060,148C3120,123,3180,62,3240,37C3300,12,3360,25,3420,61.7C3480,99,3540,160,3600,172.7C3660,185,3720,148,3780,135.7C3840,123,3900,136,3960,160.3C4020,185,4080,222,4140,203.5C4200,185,4260,111,4290,74L4320,37L4320,370L4290,370C4260,370,4200,370,4140,370C4080,370,4020,370,3960,370C3900,370,3840,370,3780,370C3720,370,3660,370,3600,370C3540,370,3480,370,3420,370C3360,370,3300,370,3240,370C3180,370,3120,370,3060,370C3000,370,2940,370,2880,370C2820,370,2760,370,2700,370C2640,370,2580,370,2520,370C2460,370,2400,370,2340,370C2280,370,2220,370,2160,370C2100,370,2040,370,1980,370C1920,370,1860,370,1800,370C1740,370,1680,370,1620,370C1560,370,1500,370,1440,370C1380,370,1320,370,1260,370C1200,370,1140,370,1080,370C1020,370,960,370,900,370C840,370,780,370,720,370C660,370,600,370,540,370C480,370,420,370,360,370C300,370,240,370,180,370C120,370,60,370,30,370L0,370Z"/><defs><linearGradient id="sw-gradient-1" x1="0" x2="0" y1="1" y2="0"><stop stop-color="rgba(2.732, 1.038, 0.494, 1)" offset="0%"/><stop stop-color="rgba(27.204, 7.271, 255, 1)" offset="100%"/></linearGradient></defs><path style="transform:translate(0, 50px); opacity:0.9" fill="url(#sw-gradient-1)" d="M0,0L30,0C60,0,120,0,180,49.3C240,99,300,197,360,252.8C420,308,480,321,540,314.5C600,308,660,284,720,246.7C780,210,840,160,900,135.7C960,111,1020,111,1080,92.5C1140,74,1200,37,1260,30.8C1320,25,1380,49,1440,55.5C1500,62,1560,49,1620,37C1680,25,1740,12,1800,55.5C1860,99,1920,197,1980,246.7C2040,296,2100,296,2160,271.3C2220,247,2280,197,2340,148C2400,99,2460,49,2520,80.2C2580,111,2640,222,2700,246.7C2760,271,2820,210,2880,191.2C2940,173,3000,197,3060,215.8C3120,234,3180,247,3240,222C3300,197,3360,136,3420,111C3480,86,3540,99,3600,123.3C3660,148,3720,185,3780,191.2C3840,197,3900,173,3960,154.2C4020,136,4080,123,4140,135.7C4200,148,4260,185,4290,203.5L4320,222L4320,370L4290,370C4260,370,4200,370,4140,370C4080,370,4020,370,3960,370C3900,370,3840,370,3780,370C3720,370,3660,370,3600,370C3540,370,3480,370,3420,370C3360,370,3300,370,3240,370C3180,370,3120,370,3060,370C3000,370,2940,370,2880,370C2820,370,2760,370,2700,370C2640,370,2580,370,2520,370C2460,370,2400,370,2340,370C2280,370,2220,370,2160,370C2100,370,2040,370,1980,370C1920,370,1860,370,1800,370C1740,370,1680,370,1620,370C1560,370,1500,370,1440,370C1380,370,1320,370,1260,370C1200,370,1140,370,1080,370C1020,370,960,370,900,370C840,370,780,370,720,370C660,370,600,370,540,370C480,370,420,370,360,370C300,370,240,370,180,370C120,370,60,370,30,370L0,370Z"/></svg>